<?xml version="1.0" standalone="no"?> <!DOCTYPE svg PUBLIC "-//W3C//DTD SVG 20010904//EN" "http://www.w3.org/TR/2001/REC-SVG-20010904/DTD/svg10.dtd"> <svg version="1.0" xmlns="http://www.w3.org/2000/svg" width="600.000000pt" height="600.000000pt" viewBox="0 0 600.000000 600.000000" preserveAspectRatio="xMidYMid meet"> <g transform="translate(0.000000,600.000000) scale(0.050000,-0.050000)" fill="#ffffff" stroke="none"> <path d="M4653 11716 c-737 -768 -833 -2152 -208 -3021 190 -265 193 -271 120 -219 -364 259 -683 806 -744 1275 -28 222 -3 340 36 166 26 -118 54 -173 75 -152 7 8 -8 86 -33 175 -61 211 -31 418 108 748 50 118 85 228 79 245 -18 46 -77 22 -71 -30 3 -25 -23 -110 -57 -189 -81 -190 -118 -309 -118 -390 0 -56 -6 -65 -37 -55 -45 14 -65 -10 -110 -132 -49 -131 -122 -234 -353 -497 -112 -126 -293 -354 -403 -505 -225 -309 -224 -308 -206 -187 13 88 -3 122 -47 95 -85 -53 -112 -1033 -35 -1253 128 -363 461 -657 931 -819 574 -199 1390 -620 1750 -902 311 -244 698 -676 861 -962 448 -785 432 -2242 -43 -4057 -142 -543 -160 -600 -190 -603 -15 -1 -43 -3 -62 -5 -97 -6 -132 -158 -48 -212 102 -67 226 19 205 143 -9 55 19 187 107 515 158 585 247 1031 362 1812 52 351 72 1029 39 1345 -65 634 -189 939 -610 1502 -152 203 -161 245 -21 89 651 -723 919 -1932 649 -2937 -31 -117 -179 -1072 -179 -1157 0 -43 -16 -106 -35 -140 -42 -74 -18 -129 61 -138 73 -9 109 60 65 127 -67 102 110 585 380 1042 299 505 1108 1300 1542 1515 265 131 500 202 539 163 70 -70 224 21 200 118 -26 105 -199 114 -226 11 -10 -38 -58 -60 -286 -135 -160 -52 -467 -227 -677 -387 -230 -175 -233 -153 -8 64 367 356 705 513 1273 591 l253 35 30 -44 c39 -54 130 -58 176 -7 93 103 -48 207 -184 135 -29 -16 -125 -38 -213 -50 -506 -70 -905 -212 -1136 -406 -117 -97 -112 -102 -91 94 78 735 -24 1536 -247 1935 -265 474 -595 820 -1026 1076 -154 91 -374 224 -490 295 -115 71 -363 210 -550 309 -833 441 -962 537 -1222 915 -447 647 -556 1271 -359 2047 106 418 459 1008 621 1036 23 4 43 26 46 52 12 80 -60 50 -183 -79z m-1271 -2361 c27 -64 29 -125 20 -595 -9 -446 130 -768 508 -1176 326 -351 877 -700 1004 -634 31 17 67 30 80 30 14 0 56 28 95 62 70 61 91 52 51 -23 -26 -48 -90 -83 -179 -98 -66 -11 -61 -14 110 -79 99 -37 199 -81 224 -97 74 -48 51 -69 -30 -28 -41 21 -201 89 -355 152 -550 223 -950 513 -1190 861 -95 139 -96 121 -4 -92 22 -51 69 -125 104 -165 35 -40 55 -73 44 -73 -40 0 -170 169 -227 297 -33 73 -109 212 -170 308 -118 187 -140 279 -30 127 87 -122 91 -116 24 33 -88 198 -108 317 -105 630 2 173 -5 285 -17 285 -10 0 -19 10 -19 21 0 12 9 16 20 9 11 -7 20 -3 20 8 0 12 -22 27 -50 34 -27 7 -50 21 -50 32 0 12 23 16 50 11 42 -8 50 -2 50 38 0 28 -12 47 -30 47 -16 0 -30 11 -30 25 0 14 -6 45 -13 70 -20 76 62 59 95 -20z m228 -135 c18 -55 30 -111 25 -125 -14 -41 -78 78 -90 167 -15 113 22 89 65 -42z m131 5 c129 -617 287 -893 685 -1194 121 -91 65 -87 -66 6 -66 46 -120 75 -120 65 0 -22 -259 69 -290 102 -30 31 140 2 217 -38 51 -26 36 -3 -74 114 -208 221 -353 554 -403 924 -9 71 -19 91 -41 83 -16 -6 -29 -2 -29 9 0 18 29 32 84 42 7 1 24 -50 37 -113z m-508 -10 c-5 -36 -18 -92 -28 -125 -9 -33 -16 -73 -15 -90 1 -16 -5 -40 -13 -51 -41 -56 -64 -687 -27 -714 13 -9 12 -14 -2 -15 -24 0 -21 -66 11 -233 9 -53 13 -103 8 -112 -5 -8 1 -15 14 -15 18 0 18 -7 -1 -30 -20 -24 -18 -32 9 -43 27 -10 29 -16 8 -30 -19 -12 -20 -21 -5 -32 12 -8 22 -28 22 -45 0 -16 10 -66 23 -110 12 -44 23 -89 24 -100 1 -11 12 -31 23 -45 12 -14 14 -25 5 -25 -8 0 -1 -16 16 -35 18 -19 34 -42 35 -50 15 -68 27 -95 44 -95 10 0 13 -9 6 -20 -34 -55 -170 118 -170 217 0 11 -10 46 -23 77 -13 31 -25 61 -27 66 -2 6 -11 57 -19 115 -11 70 -26 105 -45 105 -16 0 -22 -10 -15 -22 8 -12 18 -55 24 -95 5 -40 31 -130 57 -200 57 -153 56 -136 9 -148 -196 -52 -485 739 -407 1111 16 77 59 97 52 24 -9 -105 -7 -158 19 -435 3 -30 10 -55 16 -55 6 0 13 -29 16 -65 5 -79 111 -381 127 -365 6 7 -1 54 -17 106 -70 232 -116 830 -78 1011 6 29 16 76 22 104 5 28 19 45 29 39 10 -6 23 9 28 34 30 148 33 154 62 143 32 -12 42 -47 13 -47 -9 0 -17 -11 -18 -25 -1 -14 -8 -61 -15 -105 -26 -171 -27 -190 -4 -190 14 0 12 -9 -6 -20 -27 -18 -27 -22 0 -40 17 -11 20 -20 8 -20 -28 0 -31 -96 -3 -113 12 -7 10 -18 -4 -27 -18 -11 -16 -32 6 -87 17 -40 22 -73 12 -73 -10 0 -19 -9 -19 -19 0 -11 12 -15 28 -9 21 8 29 88 38 354 10 324 41 546 96 679 31 76 63 69 51 -10z m335 -127 c39 -15 121 -145 103 -164 -13 -13 -149 132 -150 161 -1 18 6 19 47 3z m125 -295 c56 -110 51 -144 -8 -59 -47 66 -125 218 -124 240 1 29 82 -82 132 -181z m372 -188 c248 -378 259 -398 164 -295 -192 207 -442 610 -379 610 5 0 102 -142 215 -315z m-756 209 c-6 -26 -13 -89 -15 -140 -2 -52 -12 -94 -21 -94 -10 0 -7 -13 7 -30 20 -24 20 -30 -3 -32 -21 -1 -21 -3 -1 -12 19 -7 20 -17 4 -36 -16 -19 -16 -30 1 -41 17 -10 16 -19 -4 -31 -18 -12 -20 -23 -6 -33 11 -8 23 -46 26 -85 2 -38 54 -173 114 -298 60 -125 106 -232 101 -237 -8 -8 -126 187 -209 345 -22 44 -42 66 -42 48 -1 -17 5 -38 13 -45 7 -8 16 -43 19 -78 2 -36 10 -92 16 -125 6 -33 15 -82 20 -110 5 -27 10 -54 12 -60 2 -5 3 -17 1 -25 -1 -8 7 -15 17 -15 11 0 15 -13 8 -30 -7 -20 1 -30 26 -30 31 -1 32 -4 7 -20 -25 -16 -24 -19 6 -20 28 0 34 -10 24 -40 -9 -28 11 -77 67 -160 51 -77 72 -124 58 -133 -56 -34 -214 242 -267 467 -43 178 -53 1052 -13 1131 18 36 45 11 34 -31z m582 -349 c-19 -19 -237 144 -274 205 -84 136 -32 122 124 -34 88 -89 156 -166 150 -171z m-211 95 c0 -12 69 -66 153 -120 152 -100 166 -125 39 -72 -114 47 -278 212 -212 212 11 0 20 -9 20 -20z m-112 -88 c29 -10 33 -19 16 -36 -13 -13 -26 -19 -29 -15 -3 5 -27 36 -55 69 -35 42 -38 50 -10 28 22 -18 57 -38 78 -46z m725 -77 c45 -47 122 -148 171 -226 80 -125 149 -196 396 -406 38 -33 64 -65 58 -72 -21 -21 -323 215 -410 320 -87 106 -328 443 -328 459 0 28 40 1 113 -75z m-330 -93 c120 -41 140 -62 60 -62 -73 0 -223 69 -223 103 0 13 14 15 35 6 19 -8 77 -29 128 -47z m661 -183 c231 -252 220 -294 -13 -50 -105 110 -191 207 -191 215 0 42 51 1 204 -165z m-562 -7 c49 -27 156 -76 238 -111 185 -76 692 -393 746 -465 43 -58 71 -243 39 -263 -11 -7 -25 24 -31 71 -21 159 -252 340 -774 606 -159 81 -308 161 -330 178 -66 51 11 40 112 -16z m-310 -32 c-1 -33 -11 -60 -22 -60 -11 0 -21 27 -22 60 -2 37 7 60 22 60 15 0 24 -23 22 -60z m1174 -186 c207 -224 338 -314 644 -443 263 -111 287 -139 57 -69 -304 94 -506 231 -782 534 -91 99 -165 185 -165 192 0 34 77 -33 246 -214z m-1086 146 c0 -33 -8 -60 -18 -60 -20 0 -42 93 -26 110 26 25 44 5 44 -50z m1215 -154 c36 -26 74 -43 86 -36 29 19 183 -59 379 -190 94 -63 218 -139 277 -169 59 -29 102 -58 96 -64 -25 -25 -174 48 -373 184 -220 150 -390 239 -340 179 43 -52 301 -216 470 -300 88 -44 164 -82 168 -85 5 -3 3 -10 -4 -17 -47 -47 -687 339 -869 524 -114 116 -65 105 110 -26z m-1213 -35 c32 -26 105 -62 163 -79 186 -54 352 -270 238 -308 -19 -6 -23 3 -14 32 27 85 -168 244 -300 244 -52 0 -169 96 -169 138 0 33 18 27 82 -27z m718 -109 c0 -21 5 -53 12 -70 8 -21 1 -32 -18 -32 -34 0 -51 49 -38 105 12 47 44 45 44 -3z m-670 -425 c99 -61 378 -211 621 -334 473 -239 752 -410 878 -541 104 -108 80 -126 -31 -22 -154 143 -375 275 -908 543 -540 271 -763 412 -927 586 -169 179 -155 207 19 40 93 -89 249 -212 348 -272z m183 325 c108 -50 120 -74 43 -90 -65 -13 -119 19 -159 93 -24 46 8 45 116 -3z m1858 -134 c193 -91 276 -148 215 -148 -32 0 -526 248 -526 265 0 25 52 6 311 -117z m-1543 -19 c15 -56 -35 -189 -69 -189 -17 0 -19 20 -8 65 9 36 14 100 13 142 -4 87 41 75 64 -18z m223 43 c53 -39 22 -64 -42 -35 -28 13 -73 18 -100 11 -46 -12 -65 9 -36 39 24 23 138 14 178 -15z m828 -364 c84 -179 93 -208 63 -208 -17 0 -65 92 -145 277 -43 100 -43 103 -18 103 10 0 55 -77 100 -172z m-817 122 c-1 -11 -13 -20 -27 -20 -14 0 -31 -8 -38 -18 -14 -19 -57 1 -57 28 0 9 20 21 45 26 60 11 78 7 77 -16z m1182 -12 c31 -17 45 -16 57 4 29 47 704 -152 967 -286 204 -103 540 -377 597 -486 19 -37 18 -38 -17 -9 -213 177 -275 224 -385 298 -198 133 -547 291 -841 380 -321 98 -352 95 -87 -8 711 -276 1095 -499 1394 -809 119 -123 75 -117 -91 14 -612 482 -855 621 -1346 767 -184 55 -352 125 -352 147 0 18 62 10 104 -12z m-656 -53 c-45 -189 -286 -314 -419 -217 -34 25 -23 27 92 18 154 -13 231 34 287 174 36 92 59 106 40 25z m-1478 -46 c8 -11 62 -48 122 -82 59 -33 103 -69 97 -79 -20 -32 -289 129 -289 173 0 18 58 9 70 -12z m2941 -20 c52 -22 89 -45 83 -52 -12 -12 -192 49 -223 76 -35 31 44 18 140 -24z m-1339 -54 c37 -154 139 -318 285 -460 187 -180 141 -194 -52 -15 -131 121 -285 397 -285 510 0 44 40 17 52 -35z m1216 -212 c76 -45 128 -84 117 -88 -41 -14 -491 229 -475 256 12 19 151 -46 358 -168z m-477 94 c27 -29 49 -61 49 -70 0 -29 -32 -19 -70 23 -50 55 -122 51 -162 -10 -39 -60 -88 -66 -88 -11 0 115 184 161 271 68z m-1717 -65 c256 -73 526 -224 526 -294 0 -14 -76 29 -90 52 -30 48 -274 159 -420 191 -157 35 -290 80 -290 99 0 21 79 7 274 -48z m1286 -3 c0 -11 -13 -25 -29 -31 -16 -6 -24 -24 -18 -40 7 -17 -2 -28 -23 -28 -19 0 -29 10 -22 25 7 14 18 41 24 60 13 37 68 49 68 14z m820 -246 c-128 -282 -76 -503 144 -615 155 -79 356 -10 356 122 0 23 9 37 20 30 106 -66 -70 -250 -239 -250 -354 0 -527 537 -266 825 52 58 48 28 -15 -112z m-790 67 c37 -41 31 -75 -9 -51 -30 19 -66 91 -45 91 10 0 34 -18 54 -40z m592 5 c15 -227 -271 -444 -406 -309 -21 21 -11 24 56 13 148 -24 275 79 299 242 13 87 47 123 51 54z m-759 -166 c759 -380 1085 -725 1379 -1459 68 -169 101 -229 125 -227 18 1 33 -10 33 -25 0 -16 -15 -28 -33 -28 -19 0 -28 -5 -22 -12 22 -22 95 15 95 48 1 29 3 29 19 5 12 -19 10 -40 -5 -59 -20 -24 -18 -27 11 -16 19 7 33 6 30 -2 -2 -8 21 -56 52 -108 45 -77 52 -101 34 -135 -33 -60 -79 -50 -113 24 -17 36 -27 47 -22 25 6 -31 -4 -41 -40 -43 -43 -3 -45 0 -14 22 22 16 27 30 12 38 -11 8 -27 5 -34 -7 -7 -11 -21 -20 -32 -20 -11 0 -16 8 -10 17 6 9 -11 38 -39 64 -59 55 -62 87 -10 111 41 19 -9 228 -59 245 -11 3 -20 19 -20 35 0 16 -40 104 -89 196 -48 93 -84 172 -79 177 4 5 -10 25 -32 45 -22 20 -40 46 -40 58 0 12 -23 48 -50 80 -28 32 -50 65 -50 74 0 9 -20 39 -45 66 -25 28 -76 89 -115 135 -110 133 -263 276 -340 316 -38 21 -89 55 -112 77 -23 22 -72 55 -110 75 -37 19 -72 41 -78 48 -13 18 -207 111 -221 107 -7 -2 -37 18 -68 45 -31 27 -114 76 -184 110 -70 34 -127 66 -127 71 0 24 73 -8 403 -173z m1197 148 c0 -7 -22 -33 -49 -57 -196 -182 -51 -578 179 -490 68 26 83 16 40 -28 -74 -73 -275 -24 -331 80 -39 73 -34 301 9 383 40 79 152 161 152 112z m123 -25 c26 -21 40 -46 31 -54 -8 -9 -39 8 -69 38 -62 62 -33 73 38 16z m-1014 -84 c71 -42 173 -46 256 -9 22 10 35 7 35 -8 0 -82 -254 -89 -341 -10 -79 71 -50 86 50 27z m1220 -66 c551 -394 897 -789 944 -1079 17 -104 -26 -94 -53 12 -41 160 -60 202 -143 309 -113 146 -561 575 -746 715 -83 62 -151 117 -151 122 0 21 32 4 149 -79z m-2069 0 c0 -15 -13 -33 -30 -39 -36 -14 -90 4 -90 29 0 25 28 22 56 -6 19 -19 24 -16 24 10 0 19 9 34 20 34 11 0 20 -13 20 -28z m154 -82 c225 -58 295 -107 147 -103 -43 1 -69 8 -57 15 12 8 -18 20 -66 28 -84 14 -198 60 -198 81 0 16 55 10 174 -21z m1965 -47 c175 -127 184 -388 16 -510 -68 -50 -96 -28 -41 32 142 156 105 421 -66 464 -82 20 -155 -37 -141 -111 15 -72 -52 -84 -88 -16 -80 149 162 255 320 141z m-1528 -124 c21 -34 -3 -44 -70 -29 -34 7 -56 22 -50 32 16 25 104 23 120 -3z m2173 -195 c30 -27 59 -74 66 -103 6 -29 34 -78 63 -108 28 -31 46 -61 40 -67 -17 -16 -153 135 -153 170 0 17 -61 89 -135 160 l-135 128 100 -65 c55 -36 124 -87 154 -115z m-2013 107 c67 -28 94 -71 44 -71 -32 0 -208 67 -227 86 -26 26 112 15 183 -15z m74 -146 c19 -5 35 -21 35 -35 0 -14 41 -35 90 -48 50 -12 106 -36 125 -51 19 -16 58 -47 85 -69 81 -66 -2 -52 -113 18 -52 33 -124 65 -161 72 -36 7 -66 23 -66 35 0 13 -20 32 -44 43 -56 26 -79 83 -24 61 21 -9 54 -20 73 -26z m1575 -42 c0 -9 -22 -27 -50 -39 -44 -20 -50 -19 -50 16 0 29 14 40 50 40 28 0 50 -8 50 -17z m-1238 -66 c65 -60 71 -77 28 -77 -16 0 -30 7 -30 16 0 8 -27 31 -60 51 -33 19 -60 43 -60 52 0 33 66 10 122 -42z m1138 -11 c22 -19 40 -42 40 -50 0 -26 -41 -18 -71 13 -60 59 -33 91 31 37z m285 -78 c43 -15 46 -48 5 -48 -16 0 -30 10 -30 21 0 12 -9 16 -20 9 -11 -7 -29 -7 -40 0 -28 17 -2 55 27 41 13 -6 39 -17 58 -23z m-1418 -92 c153 -80 479 -402 559 -551 77 -144 44 -132 -80 30 -134 175 -297 331 -494 472 -175 126 -170 145 15 49z m888 39 c-10 -29 -65 -43 -107 -27 -48 18 -12 52 55 52 39 0 57 -9 52 -25z m-30 -83 c35 -27 48 -73 20 -71 -27 1 -85 53 -85 76 0 30 22 28 65 -5z m307 5 c75 3 177 -91 156 -145 -14 -38 -61 -31 -52 8 7 30 -30 75 -84 104 -38 19 -37 16 6 -31 61 -66 34 -67 -107 -4 -124 55 -153 106 -46 81 36 -9 93 -15 127 -13z m-339 -188 c19 -19 25 -43 16 -65 -14 -32 -16 -32 -24 1 -4 19 -21 35 -36 35 -16 0 -29 14 -29 30 0 39 34 38 73 -1z m466 -38 c29 -35 -5 -111 -50 -111 -22 0 -29 19 -26 70 5 73 36 90 76 41z m156 -81 c6 -53 -66 -138 -105 -123 -35 14 -39 78 -9 136 28 51 107 42 114 -13z m-515 0 c0 -16 14 -30 30 -30 34 0 40 -31 10 -50 -11 -7 -26 2 -32 19 -7 17 -25 31 -40 31 -30 0 -37 24 -15 47 23 23 47 14 47 -17z m919 -89 c29 -53 26 -67 -8 -54 -17 6 -35 2 -42 -8 -25 -41 -44 3 -22 51 28 60 45 63 72 11z m-331 -18 c-1 -12 -3 -54 -5 -93 -3 -80 -34 -91 -65 -24 -25 55 9 162 47 149 14 -5 24 -19 23 -32z m-458 -23 c7 -11 5 -20 -4 -20 -9 0 -36 -6 -61 -13 -33 -8 -45 -3 -45 21 0 36 89 46 110 12z m533 -132 c-8 -114 -21 -143 -45 -105 -20 32 -23 140 -6 186 26 68 58 17 51 -81z m165 7 c17 -58 58 -173 92 -255 73 -177 94 -297 61 -358 -31 -58 -65 -35 -41 28 24 63 -16 215 -108 413 -68 145 -94 277 -53 277 10 0 32 -47 49 -105z m-617 43 c19 -30 -9 -51 -86 -67 -63 -14 -95 32 -52 76 22 21 123 15 138 -9z m729 -113 c0 -71 -31 -53 -57 32 -32 108 -28 121 17 63 22 -27 39 -70 40 -95z m-975 -35 c42 -49 43 -63 6 -77 -18 -7 -25 -1 -19 14 5 13 -24 65 -65 114 -64 76 -67 82 -16 39 32 -27 75 -68 94 -90z m329 37 c7 -20 -22 -30 -142 -51 -56 -9 -63 41 -9 63 59 24 142 18 151 -12z m446 -87 c0 -67 -9 -120 -20 -120 -11 0 -20 53 -20 120 0 67 9 120 20 120 11 0 20 -53 20 -120z m-374 -10 c-2 -11 -34 -26 -70 -32 -36 -7 -82 -19 -101 -27 -27 -12 -35 -6 -35 25 0 22 11 45 25 51 42 18 185 4 181 -17z m-696 -114 c25 -24 41 -55 36 -69 -12 -31 -66 -12 -66 23 0 14 -14 31 -31 38 -17 6 -26 21 -19 32 18 29 29 25 80 -24z m770 14 c0 -21 -21 -30 -66 -30 -36 0 -86 -14 -111 -32 -54 -38 -80 -23 -42 24 56 66 219 95 219 38z m-47 -91 c-32 -9 -74 -32 -95 -51 -51 -46 -74 -19 -28 32 24 27 60 39 108 38 72 -1 72 -1 15 -19z m110 -52 c58 -52 43 -65 -33 -30 -38 17 -70 38 -70 47 0 28 66 17 103 -17z m-8 -101 c49 -66 29 -142 -50 -184 -66 -34 -86 -11 -52 59 36 70 23 118 -33 133 -22 6 -34 19 -27 30 17 29 133 1 162 -38z m-628 -76 c-16 -42 -67 -53 -98 -21 -31 30 -39 60 -13 44 9 -6 28 -3 43 6 37 23 81 4 68 -29z m793 -61 c0 -53 -104 -149 -162 -149 -55 0 -47 26 22 67 33 19 61 51 63 69 2 19 5 43 8 54 2 11 5 28 7 37 5 38 62 -34 62 -78z m207 45 c33 -131 38 -585 7 -659 -40 -95 -83 -102 -62 -10 8 36 13 211 12 390 -3 296 13 399 43 279z m-847 -71 c0 -51 -21 -67 -53 -40 -21 17 -22 29 -5 50 32 38 58 34 58 -10z m360 -93 c96 -98 78 -121 -29 -39 -61 46 -108 129 -73 129 7 0 53 -40 102 -90z m2256 13 c5 -32 -4 -43 -33 -43 -53 0 -73 34 -42 72 33 39 67 26 75 -29z m-2476 -68 c44 -95 62 -213 36 -248 -9 -12 -21 -60 -25 -107 -12 -114 -91 -148 -91 -39 0 25 -16 47 -39 53 -31 8 -35 19 -21 56 15 40 12 44 -26 36 -36 -8 -38 -5 -14 12 25 18 24 22 -10 23 -22 1 -29 7 -15 12 36 15 31 54 -15 112 -33 43 -35 53 -10 62 17 7 30 21 30 33 0 21 -79 -15 -102 -47 -7 -10 -19 -7 -27 5 -7 12 -4 22 7 22 11 0 15 16 8 35 -11 30 -9 31 18 10 25 -21 35 -20 57 6 14 18 42 28 60 23 19 -5 47 -1 62 8 51 33 77 18 117 -67z m435 0 c-10 -30 -95 -46 -95 -18 0 18 33 33 87 41 9 1 13 -9 8 -23z m85 -22 c0 -15 -17 -42 -38 -61 -52 -47 -79 -2 -29 48 44 45 67 49 67 13z m-125 -180 c47 -50 85 -100 85 -112 0 -33 -40 -25 -53 11 -9 23 -17 25 -28 7 -8 -13 -25 -17 -39 -9 -15 9 -17 21 -4 34 13 13 -11 48 -68 100 -101 93 -124 165 -33 99 30 -21 93 -80 140 -130z m185 120 c0 -34 -76 -104 -93 -86 -20 19 35 113 66 113 15 0 27 -12 27 -27z m1338 -40 c17 -21 16 -33 -3 -49 -35 -29 -84 3 -69 44 16 39 42 41 72 5z m-1678 -183 c0 -16 13 -30 28 -30 16 0 66 -31 112 -70 46 -38 90 -70 97 -71 7 0 34 -18 60 -39 72 -61 33 -83 -60 -34 -96 52 -303 241 -284 261 23 23 47 14 47 -17z m-431 -201 c50 -76 125 -423 97 -451 -16 -16 -33 28 -63 160 -23 100 -56 214 -73 254 -44 107 -22 129 39 37z m445 -44 c-4 -30 -20 -55 -36 -56 -15 0 -38 -6 -50 -14 -12 -8 -28 -8 -35 -1 -25 24 -13 46 25 46 21 0 42 18 48 40 16 61 57 48 48 -15z m-461 -433 c-6 -16 3 -34 20 -40 16 -7 24 -21 17 -32 -19 -30 -44 -24 -58 15 -6 19 -17 46 -24 60 -7 15 3 25 22 25 21 0 30 -11 23 -28z m-33 -180 c0 -16 11 -32 24 -37 23 -7 6 -55 -20 -55 -20 0 -62 96 -48 109 20 20 44 11 44 -17z"/> <path d="M2942 8260 c2 -88 9 -160 17 -160 7 0 12 -34 10 -75 -2 -41 1 -84 7 -94 7 -11 13 -59 13 -106 1 -50 14 -94 29 -104 15 -9 22 -25 15 -36 -26 -42 108 -371 138 -341 14 14 -55 176 -75 176 -10 0 -13 9 -5 21 16 27 -29 219 -52 219 -10 0 -13 13 -7 29 6 15 -3 118 -20 227 -18 109 -32 245 -32 301 0 58 -9 103 -21 103 -13 0 -19 -60 -17 -160z"/> <path d="M3039 8159 c-16 -10 -20 -19 -9 -19 11 0 22 -29 24 -65 2 -36 8 -96 13 -135 4 -38 9 -88 11 -109 1 -23 9 -31 19 -20 15 16 -5 344 -22 361 -4 3 -19 -3 -36 -13z"/> <path d="M7617 10599 c-504 -214 -966 -361 -1476 -468 -297 -63 -292 -59 -191 -136 144 -111 349 -334 400 -436 68 -133 33 -126 -59 14 -155 232 -463 494 -532 451 -52 -32 -65 -31 -119 16 -79 69 -186 26 -142 -57 25 -46 80 -57 116 -21 15 15 25 15 34 0 8 -11 -5 -39 -28 -62 -33 -33 -37 -49 -20 -80 41 -76 120 -33 120 65 0 83 43 53 318 -222 549 -549 721 -1009 729 -1948 3 -312 11 -368 44 -314 22 36 111 88 629 369 160 87 383 219 496 295 113 75 213 132 223 126 19 -12 185 111 318 237 199 188 371 473 461 762 24 77 52 169 64 204 25 81 -5 146 -69 146 -95 0 -128 -113 -49 -168 58 -41 23 -157 -150 -501 -121 -241 -471 -651 -555 -651 -15 0 65 93 177 207 212 215 230 245 165 269 -35 13 -31 25 55 164 198 317 255 398 278 399 38 2 52 40 25 72 -27 32 -59 21 -59 -21 0 -16 -46 -89 -102 -164 -56 -75 -138 -201 -182 -281 -44 -80 -85 -149 -93 -153 -7 -5 -10 107 -6 247 12 481 -111 971 -380 1509 -47 94 -71 164 -59 168 12 4 22 17 22 28 0 13 -11 12 -29 -3 -22 -19 -33 -15 -50 18 -28 51 -1 58 -324 -80z m196 -59 c31 0 42 -9 35 -28 -28 -74 -128 -47 -128 34 0 33 5 37 24 18 13 -13 44 -24 69 -24z m-153 -36 c0 -9 -11 -28 -25 -42 -20 -20 -17 -25 15 -21 66 6 76 0 50 -31 -56 -67 -133 -25 -112 61 12 44 72 72 72 33z m303 -42 c-23 -14 -21 -22 10 -39 35 -21 35 -22 -6 -22 -26 -1 -46 14 -53 39 -8 31 0 40 33 40 32 -1 36 -5 16 -18z m-543 -38 c0 -8 -42 -50 -92 -93 -263 -220 -217 -575 108 -832 213 -168 266 -464 103 -579 -89 -64 -136 -52 -63 17 162 151 98 359 -165 533 -260 173 -345 681 -142 849 85 71 251 140 251 105z m429 -7 c49 -23 55 -33 80 -142 10 -49 6 -55 -40 -55 -87 0 -133 35 -108 81 11 22 30 35 40 28 11 -6 14 -20 8 -30 -6 -11 3 -19 21 -19 46 0 31 88 -16 97 -42 8 -114 -50 -114 -91 0 -16 -9 -23 -20 -16 -86 53 53 191 149 147z m-309 -90 c0 -17 -30 -66 -67 -107 -57 -62 -70 -95 -82 -205 -20 -190 27 -273 238 -421 65 -46 71 -134 9 -134 -83 0 -278 164 -343 290 -57 109 -53 238 12 380 75 164 233 298 233 197z m-531 -98 c17 -18 31 -49 31 -71 0 -49 -58 -74 -82 -36 -29 46 -20 61 27 46 40 -12 42 -10 17 19 -35 43 -68 42 -111 -6 -39 -42 -27 -115 25 -153 20 -15 23 -26 8 -35 -22 -14 -40 2 -94 77 -27 38 -28 38 -16 -10 24 -103 82 -141 135 -89 28 29 31 28 31 -9 0 -38 -52 -82 -98 -82 -32 0 -97 141 -104 224 -8 82 14 120 43 75 15 -23 18 -20 19 14 0 69 112 92 169 36z m730 -18 c51 -61 -16 -152 -91 -123 -34 14 -32 19 22 49 l60 33 -65 6 c-63 6 -80 23 -52 51 24 23 101 14 126 -16z m-159 -10 c0 -10 -17 -24 -38 -30 -97 -31 -74 -259 34 -353 127 -110 132 -209 6 -119 -132 93 -183 330 -103 478 22 42 101 61 101 24z m-986 -104 c106 -114 168 -361 127 -512 -27 -103 -117 -217 -148 -186 -14 14 -5 37 32 76 82 86 141 365 78 365 -9 0 -26 20 -37 44 -14 33 -17 13 -10 -77 10 -146 -61 -235 -144 -180 -59 39 -69 133 -13 133 44 0 57 -51 17 -65 -15 -5 -11 -13 10 -21 43 -16 114 50 114 107 0 78 -56 179 -99 179 -44 0 -57 -51 -16 -66 14 -5 19 -15 11 -24 -26 -28 -76 8 -76 55 0 93 90 128 137 53 14 -23 30 -37 36 -32 12 12 -82 165 -112 183 -12 8 -21 22 -21 33 0 27 59 -7 114 -65z m1348 19 c52 -96 2 -236 -84 -236 -65 0 -151 92 -126 134 27 44 118 49 118 6 0 -17 -16 -29 -36 -27 -51 4 -30 -42 23 -49 31 -5 48 8 64 48 28 74 17 118 -31 120 -65 3 -73 7 -60 28 23 37 108 22 132 -24z m265 -191 c110 -412 115 -543 44 -1036 -27 -187 -52 -370 -55 -409 -3 -38 -15 -65 -26 -60 -28 14 -14 250 31 520 65 388 46 721 -59 1034 -50 148 -50 146 -14 146 18 0 45 -68 79 -195z m-1447 60 c1 -201 168 -365 260 -255 28 34 60 40 60 10 0 -83 -143 -124 -238 -68 -69 41 -160 388 -102 388 11 0 20 -34 20 -75z m954 -79 c-22 -119 82 -202 185 -146 51 27 37 60 -19 46 -42 -11 -56 22 -19 45 68 41 172 -57 109 -103 -28 -21 -29 -27 -1 -54 66 -66 -28 -194 -143 -194 -41 0 -114 111 -93 144 20 33 47 14 47 -34 0 -42 9 -50 58 -50 56 0 120 49 95 73 -6 7 -26 1 -43 -13 -25 -20 -30 -19 -30 7 0 17 16 40 35 51 27 16 13 21 -65 22 -94 1 -102 5 -135 71 -45 91 -47 189 -3 189 25 0 30 -13 22 -54z m-774 -102 c39 9 46 -37 8 -52 -39 -15 -88 20 -88 63 0 23 6 25 28 7 15 -13 39 -21 52 -18z m1228 -176 c19 -48 14 -108 -8 -108 -11 0 -21 11 -22 25 -1 14 -4 45 -6 70 -6 52 18 60 36 13z m-1218 -52 c22 -21 -69 -59 -111 -46 -64 21 -45 60 30 60 37 0 74 -6 81 -14z m191 -41 c41 -49 53 -97 15 -59 -57 57 -185 15 -218 -71 -17 -45 -13 -58 26 -88 48 -36 39 -70 -13 -50 -105 40 -68 218 57 275 101 46 89 46 133 -7z m887 -175 c-8 -27 -12 -70 -10 -95 3 -29 -6 -45 -27 -45 -17 0 -31 9 -31 20 0 11 -16 20 -36 20 -69 0 -144 48 -132 85 6 19 1 35 -11 35 -11 0 -21 9 -21 20 0 11 13 20 29 20 16 0 38 16 49 35 16 29 24 30 46 9 21 -22 20 -30 -9 -46 -41 -23 -47 -62 -8 -46 17 6 33 -8 41 -36 l13 -46 39 47 c48 57 51 83 10 83 -42 0 -38 56 5 64 44 9 72 -56 53 -124z m938 92 c5 -24 -61 -64 -78 -47 -23 23 10 78 43 71 17 -3 33 -14 35 -24z m-2174 -79 c-116 -115 -57 -254 115 -269 120 -10 147 -35 61 -56 -71 -18 -200 24 -237 77 -58 82 -22 293 54 321 52 19 56 -23 7 -73z m1391 -13 c-4 -44 -15 -80 -25 -80 -10 0 -18 36 -18 80 0 52 9 80 26 80 17 0 23 -24 17 -80z m-1004 21 c88 -164 -157 -326 -326 -215 -54 36 -75 138 -33 164 12 7 20 -13 20 -48 0 -71 45 -102 144 -102 80 1 162 77 152 143 -8 59 -58 75 -51 16 7 -65 -41 -71 -65 -9 -36 93 111 141 159 51z m280 -99 c75 -107 49 -362 -38 -362 -30 0 -26 41 7 78 53 59 56 128 8 222 -53 104 -109 122 -100 33 4 -40 -2 -54 -20 -48 -39 12 -43 105 -6 142 40 40 89 19 149 -65z m-896 -97 c196 -452 405 -1525 297 -1525 -11 0 -20 59 -20 137 0 76 -13 176 -30 223 -35 101 -36 106 -10 90 26 -16 26 -7 -10 199 -44 248 -124 538 -194 701 -33 77 -73 169 -88 205 -18 41 -21 65 -8 65 12 0 40 -43 63 -95z m1299 12 c125 -42 190 -158 107 -190 -19 -8 -26 -26 -18 -50 7 -22 0 -53 -14 -71 -21 -26 -22 -34 -2 -41 48 -16 25 -49 -25 -37 -27 7 -50 8 -50 2 0 -6 23 -20 50 -30 102 -39 42 -186 -73 -180 -108 6 -140 1 -127 -20 7 -11 37 -20 68 -20 123 0 125 -180 2 -223 -70 -25 -74 -38 -20 -72 52 -33 51 -53 -14 -190 -54 -115 -106 -151 -106 -75 0 52 -14 50 -63 -5 l-40 -45 13 50 c7 28 20 80 29 116 20 77 55 124 94 124 21 0 16 17 -17 61 -44 60 -44 62 -10 158 19 53 34 124 34 158 0 33 8 66 19 72 36 22 80 131 53 131 -31 0 -41 306 -11 362 24 44 31 45 121 15z m-600 -48 c42 -22 59 -44 54 -71 -6 -42 -48 -45 -43 -3 3 27 -50 33 -84 10 -63 -45 -28 -110 52 -97 85 13 106 -12 40 -47 -126 -68 -219 47 -141 174 46 75 43 75 122 34z m154 -87 c-11 -88 -46 -65 -48 31 -2 84 1 90 26 55 15 -21 25 -60 22 -86z m-336 -60 c0 -11 -32 -30 -72 -43 -55 -18 -80 -42 -108 -106 -37 -82 -37 -82 -39 -22 -2 100 80 184 184 188 19 0 35 -7 35 -17z m36 -111 c-3 -11 -23 -20 -44 -22 -96 -7 -152 -186 -71 -229 38 -21 37 -60 -1 -60 -89 0 -107 185 -27 280 49 59 158 82 143 31z m432 -64 c-62 -50 -88 -58 -88 -28 0 30 103 102 126 87 12 -7 -3 -32 -38 -59z m-4 -136 c-81 -88 -172 -213 -221 -305 -70 -134 -82 -147 -82 -96 -1 68 166 339 255 414 30 25 82 81 114 124 45 59 62 70 67 45 3 -20 -50 -94 -133 -182z m-404 119 c0 -16 -8 -30 -19 -30 -10 0 -22 -16 -26 -35 -8 -33 -10 -33 -24 0 -20 46 0 95 38 95 17 0 31 -13 31 -30z m128 18 c18 -7 31 -32 30 -55 0 -24 -6 -32 -11 -18 -13 32 -93 33 -82 1 26 -79 175 -59 175 25 0 23 9 36 20 29 11 -7 20 -27 20 -45 0 -100 -170 -145 -229 -61 -63 90 -18 161 77 124z m388 -101 c-7 -39 -68 -81 -88 -61 -15 15 49 91 78 93 10 0 14 -14 10 -32z m-468 -59 c33 -13 43 -115 20 -201 -29 -110 -217 -101 -204 9 7 62 83 87 103 34 9 -22 2 -30 -20 -26 -18 3 -37 -5 -42 -19 -13 -37 66 -31 105 8 24 23 30 52 22 94 -16 79 -27 87 -59 44 -19 -27 -31 -30 -42 -13 -37 60 33 102 117 70z m1261 -26 c13 -22 -61 -117 -78 -100 -17 17 24 118 47 118 11 0 25 -8 31 -18z m-1088 -37 c-42 -74 -96 -130 -107 -112 -13 22 79 147 108 147 12 0 12 -13 -1 -35z m228 -4 c7 -10 -4 -28 -24 -40 -32 -20 -32 -22 5 -16 49 6 55 -52 6 -61 -47 -9 -87 69 -55 107 28 33 52 37 68 10z m-149 -128 c0 -3 -22 -61 -50 -129 -64 -158 -68 -344 -10 -439 l39 -65 -82 -60 c-104 -75 -117 -66 -117 89 0 175 144 611 201 611 11 0 19 -3 19 -7z m609 -113 c0 -26 -11 -51 -23 -55 -15 -5 -23 16 -22 54 2 72 45 72 45 1z m-493 -35 c4 -28 -6 -50 -25 -58 -47 -17 -61 6 -29 46 24 29 24 32 -2 24 -40 -13 -79 -93 -80 -161 0 -60 36 -94 60 -56 11 19 18 19 30 0 23 -37 -22 -66 -81 -52 -103 26 -28 323 77 308 28 -4 46 -23 50 -51z m-380 -82 c20 -59 -3 -303 -41 -433 -13 -44 -24 -93 -24 -110 -2 -73 -131 -33 -131 41 0 53 42 71 71 31 34 -47 84 123 92 312 5 122 -16 202 -37 141 -14 -38 -46 -30 -46 11 0 91 85 97 116 7z m-80 -127 c66 -66 -14 -276 -83 -218 -36 30 -26 66 14 50 35 -13 82 91 54 119 -15 15 -21 14 -21 -3 0 -13 -13 -24 -30 -24 -30 0 -42 62 -17 87 21 20 56 16 83 -11z m448 -185 c29 9 38 5 32 -14 -23 -67 -156 -16 -156 60 0 23 10 20 42 -14 28 -31 54 -41 82 -32z"/> <path d="M7812 9089 c-13 -35 32 -59 78 -42 17 7 30 26 30 42 0 41 -92 41 -108 0z"/> <path d="M7774 8947 c-20 -20 26 -67 65 -67 53 0 64 23 26 52 -39 30 -72 35 -91 15z"/> <path d="M7779 8749 c-11 -30 -18 -63 -14 -73 9 -27 71 30 79 72 10 60 -42 61 -65 1z"/> <path d="M3467 9969 c-17 -44 25 -85 56 -54 25 25 9 85 -23 85 -12 0 -27 -14 -33 -31z"/> <path d="M8704 9416 c-28 -28 -32 -89 -6 -105 53 -33 120 53 80 102 -28 33 -43 34 -74 3z"/> <path d="M2693 9207 c-27 -28 -12 -106 24 -126 58 -30 112 19 96 86 -13 51 -84 75 -120 40z"/> <path d="M5648 7891 c-16 -41 -14 -43 77 -59 67 -12 75 -9 75 27 0 27 -13 41 -38 41 -21 0 -53 5 -70 12 -19 7 -37 -1 -44 -21z"/> <path d="M3538 6585 c-294 -302 -572 -638 -809 -975 -54 -77 -155 -205 -224 -285 -201 -233 -395 -559 -472 -795 -22 -65 -49 -107 -78 -120 -86 -38 -59 -150 37 -150 65 0 98 67 69 138 -49 118 437 971 511 897 6 -6 -5 -82 -25 -168 -106 -452 -45 -1139 143 -1618 380 -965 632 -1367 1043 -1661 140 -101 294 -125 177 -28 -233 193 299 1249 973 1930 281 285 274 244 81 452 -781 842 -868 948 -1009 1228 -174 345 -241 860 -156 1189 66 254 11 247 -261 -34z m70 -82 c16 -25 -86 -163 -120 -163 -36 0 -35 5 32 105 51 76 69 88 88 58z m10 -207 c29 -47 44 -296 18 -296 -31 0 -96 161 -96 236 0 112 31 136 78 60z m-142 -113 c5 -28 -4 -43 -23 -43 -39 0 -60 34 -45 73 17 42 61 23 68 -30z m-165 -17 c-14 -56 -69 -109 -96 -93 -9 5 -10 18 -4 29 6 10 19 14 29 8 9 -6 23 17 30 50 7 33 22 60 34 60 12 0 15 -22 7 -54z m29 -127 c0 -11 -13 -19 -30 -19 -16 0 -30 -9 -30 -20 0 -11 -9 -20 -20 -20 -32 0 -23 43 15 71 36 26 65 21 65 -12z m203 -58 c32 -55 30 -81 -6 -81 -23 0 -78 112 -63 127 22 23 35 14 69 -46z m-203 -19 c0 -9 -14 -28 -30 -42 -21 -18 -24 -33 -10 -49 11 -14 14 -31 6 -38 -25 -25 -46 -12 -46 29 0 25 -16 46 -40 52 -22 6 -40 19 -40 30 0 10 16 14 35 8 19 -6 49 -2 65 8 38 24 60 25 60 2z m-269 -87 c-8 -39 -27 -135 -60 -309 -4 -24 -17 -60 -27 -80 -52 -102 -174 -497 -166 -541 2 -14 -6 -25 -18 -25 -12 0 -17 -8 -11 -18 6 -10 -2 -49 -18 -87 -16 -39 -25 -75 -19 -81 6 -6 1 -29 -10 -51 -12 -22 -25 -79 -29 -127 -5 -47 -13 -108 -20 -136 -19 -82 -34 -201 -46 -360 -19 -267 -53 -216 -40 60 19 390 69 648 205 1056 38 113 64 215 57 225 -6 11 3 33 20 51 17 17 31 52 31 77 0 26 13 72 30 104 16 31 30 82 30 113 0 64 51 174 81 174 11 0 15 -20 10 -45z m419 -262 c16 -126 -12 -155 -48 -50 -37 106 -18 304 20 203 8 -22 21 -90 28 -153z m-230 106 c0 -12 -9 -39 -21 -61 -30 -56 -60 -27 -32 32 24 51 53 67 53 29z m366 -273 c23 -433 158 -729 472 -1035 88 -86 138 -191 91 -191 -49 0 -335 367 -420 540 -129 261 -265 969 -175 914 11 -7 25 -110 32 -228z m60 39 c25 -325 157 -579 422 -811 113 -100 164 -174 119 -174 -21 0 -191 161 -305 289 -168 190 -282 492 -282 750 0 157 33 119 46 -54z m-381 85 c-7 -32 -105 -31 -105 0 0 18 20 26 55 23 30 -2 53 -13 50 -23z m-195 -65 c0 -12 7 -28 15 -37 8 -8 15 -22 15 -31 0 -21 -60 -23 -60 -2 0 8 -6 36 -13 63 -10 35 -6 45 15 38 15 -5 28 -19 28 -31z m426 -275 c23 -66 73 -208 113 -316 39 -108 71 -205 71 -215 0 -42 -40 -16 -53 35 -7 29 -25 76 -40 105 -15 28 -27 61 -27 73 0 11 -31 100 -69 196 -38 97 -75 204 -82 239 -22 105 39 23 87 -117z m-276 99 c0 -16 12 -23 30 -16 21 8 30 -1 30 -29 0 -22 11 -45 25 -51 14 -5 16 -10 5 -11 -33 -1 -153 117 -139 139 16 26 49 5 49 -32z m-210 -67 c-10 -46 -4 -61 24 -72 50 -18 157 -150 134 -167 -29 -21 -26 -83 4 -83 33 0 37 -32 7 -51 -11 -7 -15 -30 -8 -51 6 -21 3 -38 -7 -38 -22 0 -65 245 -46 260 7 6 -8 30 -33 54 l-45 45 0 -365 c1 -680 116 -1496 203 -1442 14 9 16 -2 7 -32 -10 -33 -8 -41 10 -30 17 11 20 3 11 -27 -9 -27 -5 -43 9 -43 12 0 17 -9 9 -21 -7 -12 7 -38 31 -59 24 -21 38 -47 31 -59 -34 -54 239 -429 388 -534 74 -53 106 -107 62 -107 -27 0 -195 149 -277 246 -352 419 -506 974 -536 1934 -9 293 -21 455 -36 465 -15 11 -14 20 5 33 17 10 22 33 14 58 -15 49 6 144 33 144 11 0 14 -25 6 -58z m-112 -110 c-28 -113 -58 -138 -58 -48 0 62 53 170 73 150 5 -5 -2 -51 -15 -102z m994 -18 c4 -38 -4 -54 -26 -54 -18 0 -26 11 -19 29 6 17 2 35 -8 42 -25 15 -2 53 26 44 11 -4 23 -31 27 -61z m122 -259 c67 -46 84 -75 44 -75 -31 0 -138 79 -138 101 0 29 22 23 94 -26z m-1106 -42 c-21 -67 -132 -256 -143 -245 -9 10 55 189 99 278 24 48 61 21 44 -33z m-45 -296 c-33 -81 -70 -181 -83 -222 -12 -41 -32 -80 -44 -87 -47 -29 27 229 125 438 58 123 60 13 2 -129z m323 63 c7 -29 20 -36 46 -27 28 11 32 7 19 -25 -8 -21 -17 -54 -18 -73 -2 -20 -12 -33 -23 -30 -11 3 -17 25 -14 50 6 47 -26 63 -42 20 -5 -14 -16 -18 -26 -9 -9 9 -5 24 10 33 16 10 21 32 13 59 -8 23 -5 42 5 42 11 0 24 -18 30 -40z m387 -51 c17 -44 -29 -88 -52 -51 -20 32 -6 82 22 82 10 0 24 -14 30 -31z m951 -153 c-19 -19 -30 -18 -49 1 -20 20 -19 28 5 43 18 11 37 11 49 -1 12 -12 10 -28 -5 -43z m-115 0 c70 -101 23 -256 -79 -256 -113 0 -155 35 -147 120 5 44 -1 83 -11 86 -28 9 5 54 55 74 79 32 149 22 182 -24z m-578 -38 c21 -33 -26 -71 -53 -44 -23 23 -9 66 22 66 10 0 24 -10 31 -22z m-918 -456 c-3 -387 -27 -460 -47 -145 -13 195 9 523 34 523 9 0 15 -170 13 -378z m978 356 c21 -33 -26 -71 -53 -44 -23 23 -9 66 22 66 10 0 24 -10 31 -22z m127 -40 c-59 -46 -78 -47 -78 -6 0 20 11 28 28 21 16 -6 34 3 40 20 7 16 22 23 35 15 15 -9 7 -26 -25 -50z m693 40 c21 -33 -26 -71 -53 -44 -23 23 -9 66 22 66 10 0 24 -10 31 -22z m-1897 -43 c-6 -25 -17 -79 -25 -120 -7 -41 -22 -69 -33 -63 -18 12 -10 103 16 193 16 52 54 43 42 -10z m486 -10 c-1 -24 -79 -117 -79 -95 -1 52 26 110 51 110 16 0 28 -7 28 -15z m533 -76 c17 -44 -25 -85 -56 -54 -25 25 -9 85 23 85 12 0 27 -14 33 -31z m857 -51 c0 -15 -20 -29 -44 -30 -38 -2 -41 3 -24 36 23 43 68 39 68 -6z m-76 -69 c26 10 27 7 7 -18 -14 -16 -19 -49 -11 -75 9 -32 7 -38 -6 -19 -13 19 -23 21 -33 5 -10 -16 -25 -16 -55 0 -26 14 -33 27 -20 36 14 8 15 24 3 43 -12 19 -18 21 -19 4 0 -14 -9 -25 -20 -25 -31 0 -24 30 23 90 l43 55 29 -54 c19 -36 38 -50 59 -42z m-1573 -429 c82 -527 206 -978 350 -1264 39 -78 65 -147 58 -153 -38 -39 -246 369 -319 626 -92 323 -212 1152 -178 1227 16 37 16 36 89 -436z m448 331 c-22 -33 -42 -46 -54 -34 -12 12 -6 39 16 72 22 33 42 46 54 34 12 -12 6 -39 -16 -72z m791 59 c0 -45 -120 -112 -188 -105 -82 7 -92 53 -12 51 35 -1 86 16 116 40 65 51 84 54 84 14z m-284 -92 c3 -26 23 -120 43 -208 43 -182 72 -490 47 -490 -9 0 -41 151 -71 335 -30 184 -60 356 -68 383 -10 35 -6 45 15 38 15 -5 31 -31 34 -58z m-1159 -9 c4 -4 1 -16 -7 -29 -10 -16 -21 -16 -42 1 -23 20 -28 15 -28 -24 l-1 -47 -26 50 c-37 70 37 104 104 49z m1372 -48 c-30 -29 -163 -47 -177 -24 -8 13 18 26 62 34 42 7 85 15 96 18 30 8 40 -7 19 -28z m-574 -26 c14 5 25 -7 25 -25 0 -20 -10 -29 -25 -22 -14 7 -41 18 -60 24 -37 13 -44 32 -21 56 8 8 24 2 35 -14 12 -15 32 -24 46 -19z m785 -12 c0 -32 -28 -111 -62 -177 -48 -94 -64 -154 -72 -282 -15 -209 -46 -192 -46 23 0 149 7 179 70 304 38 77 70 150 70 164 0 14 9 25 20 25 11 0 20 -26 20 -57z m-1580 -74 c0 -27 -9 -49 -20 -49 -11 0 -20 28 -20 61 0 36 8 56 20 49 11 -7 20 -34 20 -61z m650 29 c8 -22 8 -47 1 -54 -15 -15 -50 34 -51 71 0 41 36 29 50 -17z m467 -178 c13 -82 29 -170 36 -195 16 -63 -21 -56 -53 10 -30 65 -54 385 -26 355 11 -11 30 -87 43 -170z m-1098 -85 c33 -104 58 -275 42 -285 -23 -13 -123 361 -108 401 16 41 16 41 66 -116z m701 5 c0 -11 14 -20 30 -20 34 0 40 -31 10 -50 -11 -7 -26 2 -32 19 -7 17 -25 31 -40 31 -15 0 -28 9 -28 20 0 11 14 20 30 20 17 0 30 -9 30 -20z m-100 -15 c-1 -18 -77 -90 -120 -115 -16 -9 -10 6 15 33 25 27 45 60 45 73 0 13 14 24 30 24 17 0 30 -7 30 -15z m340 -64 c0 -28 -78 -66 -109 -54 -18 7 -23 -2 -16 -28 5 -22 0 -39 -13 -39 -12 0 -23 14 -25 30 -2 17 -4 41 -5 53 -1 13 18 25 43 27 25 2 51 9 58 17 20 20 67 16 67 -6z m-840 -96 c0 -30 5 -77 10 -105 9 -44 7 -43 -19 10 -34 70 -40 150 -11 150 11 0 20 -25 20 -55z m760 -75 c0 -16 9 -30 20 -30 11 0 20 -9 20 -20 0 -11 -11 -20 -25 -20 -30 0 -78 70 -60 88 21 22 45 13 45 -18z m319 -29 c25 -58 11 -120 -19 -88 -26 28 -45 147 -24 147 11 0 30 -26 43 -59z m-119 -80 c0 -21 -64 -61 -99 -61 -11 0 -21 9 -21 20 0 11 14 20 30 20 17 0 30 9 30 20 0 11 14 20 30 20 17 0 30 -9 30 -19z m215 -91 c3 -2 0 -19 -7 -37 -15 -41 -48 -43 -48 -4 0 18 -12 25 -30 18 -19 -7 -30 1 -30 21 0 28 81 29 115 2z m-275 -31 c0 -11 -12 -19 -28 -19 -35 0 -31 -63 6 -92 18 -14 21 -26 7 -35 -46 -28 -89 82 -53 137 30 46 68 51 68 9z m73 -129 c-1 -49 -8 -90 -15 -90 -27 0 -39 110 -20 175 13 41 37 -17 35 -85z m-293 -38 c0 -18 14 -25 40 -18 31 8 40 1 40 -32 0 -53 -16 -53 -74 1 -49 46 -59 77 -26 77 11 0 20 -13 20 -28z m349 -106 c-8 -82 -89 -159 -89 -86 0 11 14 20 31 20 21 0 31 16 28 45 -5 64 -1 79 18 67 9 -6 15 -26 12 -46z m-189 -45 c0 -11 -17 -29 -39 -40 -50 -27 -75 9 -26 37 45 26 65 27 65 3z"/> <path d="M6160 4910 c-19 -23 -20 -38 -4 -54 30 -30 88 -3 80 37 -9 47 -45 54 -76 17z"/> <path d="M8214 4694 c-5 -15 -3 -39 6 -54 22 -36 84 -8 76 35 -8 43 -67 57 -82 19z"/> <path d="M8133 4531 c-15 -39 42 -84 71 -55 27 27 6 84 -31 84 -16 0 -34 -13 -40 -29z"/> <path d="M8240 4243 c0 -47 17 -63 52 -49 44 16 35 86 -12 86 -25 0 -40 -13 -40 -37z"/> <path d="M8384 3855 c3 -25 20 -45 36 -45 17 0 33 20 36 45 5 35 -3 45 -36 45 -33 0 -41 -10 -36 -45z"/> <path d="M2309 3618 c-18 -28 41 -87 69 -69 38 23 26 91 -17 91 -21 0 -45 -10 -52 -22z"/> <path d="M2500 3601 c0 -21 7 -43 16 -48 28 -18 70 22 58 55 -18 45 -74 40 -74 -7z"/> <path d="M2620 3340 c0 -27 13 -40 40 -40 27 0 40 13 40 40 0 27 -13 40 -40 40 -27 0 -40 -13 -40 -40z"/> <path d="M2820 2940 c0 -30 10 -41 35 -36 19 4 35 20 35 36 0 16 -16 32 -35 36 -25 5 -35 -6 -35 -36z"/> <path d="M2961 2492 c-31 -38 -11 -72 42 -72 29 0 38 11 33 43 -8 55 -42 68 -75 29z"/> <path d="M6960 2480 c0 -27 13 -40 40 -40 27 0 40 13 40 40 0 27 -13 40 -40 40 -27 0 -40 -13 -40 -40z"/> <path d="M6792 2148 c-7 -19 -5 -43 6 -54 29 -29 86 1 78 41 -9 47 -68 56 -84 13z"/> <path d="M6282 1061 c-34 -21 -15 -81 26 -81 44 0 61 40 29 71 -17 17 -37 21 -55 10z"/> </g> </svg>